<?xml version="1.0" encoding="iso-8859-1"?>
<!-- Generator: Adobe Illustrator 19.0.0, SVG Export Plug-In . SVG Version: 6.00 Build 0)  -->
<svg version="1.1" id="Layer_1" xmlns="http://www.w3.org/2000/svg" xmlns:xlink="http://www.w3.org/1999/xlink" x="0px" y="0px"
	 viewBox="0 0 508.001 508.001" style="enable-background:new 0 0 508.001 508.001;" xml:space="preserve">
<circle style="fill:#FD8469;" cx="254.001" cy="254" r="254"/>
<path style="fill:#FFFFFF;" d="M305.6,498.4V323.6c-3.6-2.4-6.4-5.6-8.4-9.2c-1.2-2.4-2-5.2-2-8l-3.6-50h-74.8l-2.8,38l0,0
	l-0.8,12.4c-0.4,7.6-4.8,14-11.2,17.6v174H305.6z"/>
<path style="fill:#FFD05B;" d="M212.801,351.2c0,0,39.6,23.6,81.6,0c0,0,16,27.2-40.8,143.2
	C253.201,494.4,202.4,393.2,212.801,351.2z"/>
<path style="fill:#324A5E;" d="M340,150.4c0.8-13.2-0.8-27.6-4.4-41.6c-9.6-37.6-32.8-62-54-62c-3.6,0-6.8,0.8-10,2
	c-10.8,4.4-24,4.4-34.8,0c-3.2-1.2-6.8-2-10-2c-21.2,0-44.4,24.4-54,62c-3.6,14-4.8,28.4-4.4,41.6H340z"/>
<ellipse style="fill:#2B3B4E;" cx="254.001" cy="152" rx="154.8" ry="48"/>
<path style="fill:#E6E9EE;" d="M297.201,314.4L297.201,314.4c-62,47.6-82.8-17.6-83.2-20l0,0l2.8-38h74.8l3.6,50
	C295.201,309.6,296,312,297.201,314.4z"/>
<g>
	<path style="fill:#324A5E;" d="M256.4,508c-0.8,0-1.6,0-2.4,0c-0.8,0-1.6,0-2.4,0c-0.8,0-1.6,0-2.4,0c-68.4-1.2-130-29.6-173.6-74
		c0-105.6,130-113.6,131.2-115.2l-10.4,21.6l20.4,84.8l36.8,77.6L256.4,508z"/>
	<path style="fill:#324A5E;" d="M432.4,434c-44.8,45.6-108.4,74-178.4,74c-0.8,0-1.6,0-2.4,0l2.4-5.2l36.8-77.6l20.4-84.8
		l-10.4-21.6C302.8,320.4,432.4,327.2,432.4,434z"/>
</g>
<g>
	<path style="fill:#2B3B4E;" d="M328.4,357.6l14,30.8c0,0-84.4,120-85.2,119.6c-1.2-0.4-2,0-3.2,0c-0.8,0-1.6,0-2.4,0
		c-0.8,0-1.6,0-2.4,0c17.2-46,68.8-177.2,37.6-226.8c2,2,80,8.4,80,76h-38.4V357.6z"/>
	<path style="fill:#2B3B4E;" d="M179.601,357.6l-14,30.8c0,0,84.4,120,85.2,119.6c1.2-0.4,2,0,3.2,0c0.8,0,1.6,0,2.4,0
		c0.8,0,1.6,0,2.4,0c-17.2-46-68.8-177.2-37.6-226.8c-2,2-80,9.6-80,76h38.4V357.6z"/>
</g>
<g>
	<path style="fill:#324A5E;" d="M173.601,194L173.601,194c0,2,0,4.4,0.4,6.4c0,0.8,0,1.2,0,2c0,1.2,0.4,2,0.4,3.2s0.4,2.4,0.4,3.2
		c0,0,0,0,0,0.4c0.4,2.4,0.8,4.8,1.2,6.8v0.4c0.4,2,0.8,4.4,1.6,6.4c0,0.4,0,0.4,0.4,0.8l0,0c-0.8-1.2-2-2.4-2.8-3.6
		c-0.8-1.2-1.6-2-2-3.2c-1.2-2-2-3.6-3.2-5.6c-0.4-0.8-0.8-1.6-1.2-2.4c0-0.4-0.4-0.8-0.4-1.2c-0.4-0.8-0.8-1.6-1.2-2.4
		c-0.8-1.6-1.2-3.2-2-4.8c-0.4-0.8-0.8-1.6-0.8-2.8c0-0.4-0.4-0.8-0.4-0.8c-0.4-0.8-0.4-1.2-0.4-2c-0.4-0.8-0.4-1.6-0.8-2.4
		c0-0.4-0.4-0.8-0.4-1.2c-1.2-5.6-2-11.6-2-17.6c0-1.6,0-2.8,0-4.4c0.4-6,1.2-11.6,2.8-17.2c26.4-4,56.4-6,88.4-6
		c17.2,0,33.6,0.8,49.6,2c-20.4,18-60.8,44-123.2,45.6C178.001,193.6,174.801,194,173.601,194L173.601,194z"/>
	<path style="fill:#324A5E;" d="M343.6,173.2c0,6-0.8,12-2,17.6c0,0.4,0,0.8-0.4,1.2c0,0.8-0.4,1.6-0.8,2.4c0,0.8-0.4,1.6-0.4,2
		s0,0.8-0.4,0.8c-0.4,0.8-0.4,1.6-0.8,2.8c-0.4,1.6-1.2,3.2-2,4.8c-0.4,0.8-0.8,1.6-1.2,2.4c0,0.4-0.4,0.8-0.4,1.2
		c-0.4,0.8-0.8,1.6-1.2,2.4c-0.8,2-2,3.6-3.2,5.6c-0.8,1.2-1.2,2-2,3.2s-1.6,2.4-2.8,3.6l0,0c0.8-2.4,1.2-4.8,1.6-7.6v-0.4
		c0.4-2.4,0.8-4.8,1.2-6.8l0,0V208c0-1.2,0.4-2.4,0.4-4c0-0.8,0.4-2,0.4-2.8s0-1.2,0-2c0-2,0.4-4,0.4-6c0-0.4,0-0.4,0-0.8l0,0l0,0
		c0,0-1.2-0.4-2-1.2c-0.4,0-0.4-0.4-0.8-0.4c-0.8-0.4-1.2-0.8-1.2-0.8c-20-13.6-20.4-31.6-18.4-43.2c11.2,0.8,22,2,32,3.6
		c1.6,5.6,2.4,11.2,2.8,17.2C343.6,170.4,343.6,171.6,343.6,173.2z"/>
</g>
<path style="fill:#FFFFFF;" d="M344.8,220c-5.6,12-15.6,19.2-22.4,16c-13.2,37.6-39.6,70.4-70.4,70.4s-57.6-32.8-70.4-70.4
	c-6.8,3.2-16.8-3.6-22.4-16c-5.6-12.4-4.8-25.2,2-28.4c0.4-0.4,0.8-0.4,1.2-0.4c0,0.4,0,0.8,0.4,1.2c0,0.8,0.4,1.6,0.8,2.4
	c0,0.8,0.4,1.6,0.4,2s0,0.8,0.4,0.8c0.4,0.8,0.4,1.6,0.8,2.8c0.4,1.6,1.2,3.2,2,4.8c0.4,0.8,0.8,1.6,1.2,2.4c0,0.4,0.4,0.8,0.4,1.2
	c0.4,0.8,0.8,1.6,1.2,2.4c0.8,2,2,3.6,3.2,5.6c0.8,1.2,1.2,2,2,3.2s1.6,2.4,2.8,3.6c0-0.4,0-0.4-0.4-0.8c-0.4-2-1.2-4.4-1.6-6.4V216
	c-0.4-2.4-0.8-4.8-1.2-6.8c0,0,0,0,0-0.4l0,0c0-1.2-0.4-2-0.4-3.2s-0.4-2-0.4-3.2c0-0.8,0-1.2,0-2c0-2-0.4-4.4-0.4-6.4l0,0
	c0,0,0,0,0.4,0c1.2,0,4-0.4,4-0.4c62.4-1.6,102.8-27.6,124-46.4c2.4,0,4.8,0.4,7.2,0.4c-2.4,11.6-1.6,29.6,18.4,43.2
	c0,0,0.4,0.4,1.2,0.8c0.4,0,0.4,0.4,0.8,0.4c1.2,0.4,2,1.2,2,1.2l0,0l0,0c0,0.4,0,0.4,0,0.8c0,2-0.4,4-0.4,6c0,0.4,0,1.2,0,2
	s0,2-0.4,2.8c0,1.2-0.4,2.4-0.4,3.6l0,0v0.4l0,0c-0.4,2.4-0.8,4.8-1.2,6.8c0,0,0,0,0,0.4c-0.4,2.4-1.2,4.8-1.6,7.6
	c0.8-1.2,2-2.4,2.8-3.6c0.8-1.2,1.6-2,2-3.2c1.2-2,2-3.6,3.2-5.6c0.4-0.8,0.8-1.6,1.2-2.4c0-0.4,0.4-0.8,0.4-1.2
	c0.4-0.8,0.8-1.6,1.2-2.4c0.8-1.6,1.2-3.2,2-4.8c0.4-0.8,0.8-1.6,0.8-2.8c0-0.4,0-0.8,0.4-0.8c0.4-0.8,0.4-1.2,0.4-2
	c0.4-0.8,0.4-1.6,0.8-2.4c0-0.4,0.4-0.8,0.4-1.2c0.4,0,0.8,0.4,1.2,0.4C349.6,194.8,350.4,207.6,344.8,220z"/>
<g>
	<path style="fill:#324A5E;" d="M173.601,190C173.201,190,173.201,190,173.601,190L173.601,190L173.601,190z"/>
	<path style="fill:#324A5E;" d="M252.001,198.8c2.8,18.4,19.2,32.4,38.8,32.4c19.6,0,36-14,38.8-32.4L252.001,198.8L252.001,198.8z"
		/>
	<path style="fill:#324A5E;" d="M174.801,198.8c2.8,18.4,19.2,32.4,38.8,32.4s36-14,38.8-32.4L174.801,198.8L174.801,198.8z"/>
</g>
<g>
</g>
<g>
</g>
<g>
</g>
<g>
</g>
<g>
</g>
<g>
</g>
<g>
</g>
<g>
</g>
<g>
</g>
<g>
</g>
<g>
</g>
<g>
</g>
<g>
</g>
<g>
</g>
<g>
</g>
</svg>
