<svg id="peephole-svgrepo-com" xmlns="http://www.w3.org/2000/svg" width="489.6" height="489.6" viewBox="0 0 489.6 489.6">
  <path id="Path_3" data-name="Path 3" d="M476.136,231.2H448.3C441.565,129.541,360.061,48.036,258.4,41.3V13.464A13.46,13.46,0,0,0,244.937,0h-.272A13.46,13.46,0,0,0,231.2,13.464V41.3C129.54,48.036,48.035,129.541,41.3,231.2H13.464A13.46,13.46,0,0,0,0,244.665v.271A13.46,13.46,0,0,0,13.464,258.4H41.3c6.732,101.66,88.237,183.165,189.9,189.9v27.839A13.46,13.46,0,0,0,244.664,489.6h.272A13.46,13.46,0,0,0,258.4,476.136V448.3c101.66-6.732,183.165-88.237,189.9-189.9h27.839A13.46,13.46,0,0,0,489.6,244.936v-.271A13.46,13.46,0,0,0,476.136,231.2Zm-68.747,0H383.507A139.609,139.609,0,0,0,258.394,106.087V82.212C337.552,88.781,400.819,152.048,407.389,231.2Zm-87.925,27.2h43.5A119.164,119.164,0,0,1,258.4,362.964v-43.5A13.46,13.46,0,0,0,244.937,306h-.272A13.459,13.459,0,0,0,231.2,319.464v43.5A119.164,119.164,0,0,1,126.638,258.4h43.5A13.459,13.459,0,0,0,183.6,244.936v-.271A13.46,13.46,0,0,0,170.138,231.2h-43.5A119.162,119.162,0,0,1,231.2,126.638v43.5A13.46,13.46,0,0,0,244.665,183.6h.272A13.46,13.46,0,0,0,258.4,170.138v-43.5A119.162,119.162,0,0,1,362.964,231.2h-43.5A13.461,13.461,0,0,0,306,244.665v.271A13.46,13.46,0,0,0,319.464,258.4ZM231.2,82.212v23.881A139.6,139.6,0,0,0,106.087,231.2H82.212C88.781,152.048,152.048,88.781,231.2,82.212ZM82.212,258.4h23.881A139.608,139.608,0,0,0,231.206,383.513v23.882C152.048,400.82,88.781,337.552,82.212,258.4ZM258.4,407.388V383.506A139.6,139.6,0,0,0,383.513,258.4h23.882C400.819,337.552,337.552,400.82,258.4,407.388Z" fill="#ef8354"/>
</svg>
