<?xml version="1.0" encoding="iso-8859-1"?>
<!-- Generator: Adobe Illustrator 16.0.0, SVG Export Plug-In . SVG Version: 6.00 Build 0)  -->
<!DOCTYPE svg PUBLIC "-//W3C//DTD SVG 1.1//EN" "http://www.w3.org/Graphics/SVG/1.1/DTD/svg11.dtd">
<svg version="1.1" id="Capa_1" xmlns="http://www.w3.org/2000/svg" xmlns:xlink="http://www.w3.org/1999/xlink" x="0px" y="0px"
	 width="488.767px" height="488.767px" viewBox="0 0 488.767 488.767" style="enable-background:new 0 0 488.767 488.767;"
	 xml:space="preserve">
<g>
	<g>
		<path d="M394.388,294.094c-1.416-1.812-9.303-10.988-25.094-17.014c-13.805-4.272-47.873-15.563-66.695-29.075
			c1.234-1.629,2.443-3.31,3.615-5.054c15.445-22.979,23.949-53.896,23.949-87.06c0-5.456-0.193-10.577-0.545-15.424
			c34.166-6.835,56.25-17.674,56.25-29.878c0-13.976-28.959-26.162-71.863-32.591c-1.062-6.93-1.787-14.609-1.787-22.703
			C312.218,24.757,303.154,0,277.772,0c-28.875,0-22.897,34.099-33.388,35.351C233.894,34.099,239.871,0,210.996,0
			c-25.381,0-34.446,24.757-34.446,55.295c0,8.094-0.725,15.775-1.787,22.703c-42.905,6.429-71.863,18.615-71.863,32.591
			c0,12.204,22.083,23.043,56.25,29.878c-0.352,4.847-0.546,9.968-0.546,15.424c0,33.163,8.505,64.08,23.949,87.06
			c1.172,1.745,2.38,3.425,3.616,5.054c-18.823,13.512-52.892,24.803-66.695,29.075c-15.792,6.023-23.678,15.201-25.096,17.014
			c-29.041,43.114-32.331,139.842-32.357,140.803c0.26,12.87,4.083,17.27,5.403,17.812c64.016,28.481,139.252,35.915,176.96,36.058
			c37.708-0.143,112.944-7.576,176.959-36.059c1.32-0.543,5.143-4.941,5.402-17.812C426.72,433.936,423.431,337.208,394.388,294.094
			z M168.725,86.869c-0.184,0.651-0.281,1.312-0.281,1.979c0,12.739,33.999,23.066,75.94,23.066s75.94-10.327,75.94-23.066
			c0-0.668-0.098-1.328-0.281-1.979c5.721,3.461,8.943,7.37,8.943,11.51c0,14.191-37.877,25.698-84.603,25.698
			s-84.604-11.507-84.604-25.698C159.78,94.239,163.006,90.33,168.725,86.869z M170.388,155.892c0-4.661,0.137-9.1,0.407-13.327
			c21.441,3.461,46.634,5.455,73.589,5.455c26.956,0,52.147-1.994,73.588-5.455c0.271,4.228,0.408,8.666,0.408,13.327
			c0,62.924-32.504,112.212-73.997,112.212C202.891,268.104,170.388,218.816,170.388,155.892z"/>
		<path d="M239.67,163.308h9.427c1.394,18.262,16.234,32.639,34.348,32.639c18.115,0,32.955-14.377,34.35-32.639h0.01v-0.139
			c0.062-0.884,0.105-1.771,0.105-2.674h-0.105v-5.224H170.857v8.036h0.117c1.394,18.262,16.234,32.639,34.348,32.639
			C223.436,195.946,238.277,181.57,239.67,163.308z"/>
	</g>
</g>
<g>
</g>
<g>
</g>
<g>
</g>
<g>
</g>
<g>
</g>
<g>
</g>
<g>
</g>
<g>
</g>
<g>
</g>
<g>
</g>
<g>
</g>
<g>
</g>
<g>
</g>
<g>
</g>
<g>
</g>
</svg>
